ply
format ascii 1.0
comment Created by Blender 2.79 (sub 0) - www.blender.org, source file: ''
element vertex 376
property float x
property float y
property float z
property float nx
property float ny
property float nz
property float s
property float t
element face 136
property list uchar uint vertex_indices
end_header
-3.006276 -3.358997 -2.376427 0.009776 -0.999943 0.004315 0.090992 0.807749
-1.002092 -3.314861 -2.785609 0.009776 -0.999943 0.004315 0.100160 0.847936
-0.453237 -3.314862 2.067279 0.009776 -0.999943 0.004315 0.004736 0.861721
-3.006276 -3.314862 1.754677 0.009776 -0.999943 0.004315 0.009504 0.810061
0.453236 -3.314862 2.067279 -0.000208 -0.999952 0.009812 0.109632 0.579927
1.002092 -3.358997 -2.785609 -0.000208 -0.999952 0.009812 0.205084 0.593508
3.006276 -3.358997 -2.376427 -0.000208 -0.999952 0.009812 0.195998 0.633714
3.006276 -3.314862 1.754677 -0.000208 -0.999952 0.009812 0.114506 0.631576
3.006276 -3.358997 -2.376427 0.031886 0.000000 -0.999492 0.171488 0.283233
3.006277 6.828531 -2.376425 0.031886 0.000000 -0.999492 0.320692 0.420616
9.024563 3.914944 -2.184430 0.031886 0.000000 -0.999492 0.198408 0.471417
9.024563 -3.314861 -2.184433 0.031886 0.000000 -0.999492 0.091876 0.373324
3.006277 6.828531 -2.376425 0.433947 0.900839 -0.013408 0.801524 0.795340
3.006277 6.872664 1.754682 0.433947 0.900839 -0.013408 0.720381 0.803330
9.024563 3.959080 -0.384883 0.433947 0.900839 -0.013408 0.751021 0.678340
9.024563 3.914944 -2.184430 0.433947 0.900839 -0.013408 0.786368 0.674859
3.006277 6.872664 1.754682 0.334972 -0.000001 0.942228 0.772775 0.366552
3.006276 -3.314862 1.754677 0.334972 -0.000001 0.942228 0.973390 0.363216
9.024563 -3.314861 -0.384889 0.334972 -0.000001 0.942228 0.971513 0.476925
9.024563 3.959080 -0.384883 0.334972 -0.000001 0.942228 0.828273 0.479307
-3.006274 6.872666 -2.376425 -0.031886 0.000000 -0.999492 0.400093 0.330487
-3.006276 -3.358997 -2.376427 -0.031886 0.000000 -0.999492 0.250889 0.193104
-9.024563 -3.358997 -2.184433 -0.031886 0.000000 -0.999492 0.330231 0.102765
-9.024563 3.914944 -2.184430 -0.031886 0.000000 -0.999492 0.436763 0.200857
-3.006276 -3.314862 1.754677 -0.334972 -0.000001 0.942228 0.972574 0.243261
-3.006274 6.872663 1.754682 -0.334972 -0.000001 0.942228 0.771959 0.246597
-9.024563 3.959080 -0.384883 -0.334972 -0.000001 0.942228 0.825824 0.119212
-9.024563 -3.314861 -0.384889 -0.334972 -0.000001 0.942228 0.969065 0.116830
-3.006274 6.872663 1.754682 -0.437527 0.899180 -0.006691 0.810996 0.592650
-3.006274 6.872666 -2.376425 -0.437527 0.899180 -0.006691 0.892139 0.600643
-9.024563 3.914944 -2.184430 -0.437527 0.899180 -0.006691 0.876979 0.721123
-9.024563 3.959080 -0.384883 -0.437527 0.899180 -0.006691 0.841632 0.717641
9.024563 3.914944 -2.184430 0.654579 0.755928 -0.009995 0.786368 0.674859
9.024563 3.959080 -0.384883 0.654579 0.755928 -0.009995 0.751021 0.678340
13.007238 0.471301 -1.801312 0.654579 0.755928 -0.009995 0.771308 0.595625
13.007238 0.471303 -3.339647 0.654579 0.755928 -0.009995 0.801524 0.592650
9.024563 -3.314861 -0.384889 -0.289767 -0.957097 -0.000000 0.153665 0.754055
9.024563 -3.314861 -2.184433 -0.289767 -0.957097 -0.000000 0.189164 0.754986
13.239080 -4.590834 -3.098896 -0.289767 -0.957097 -0.000000 0.205084 0.840417
13.239080 -4.590834 -2.042068 -0.289767 -0.957097 -0.000000 0.184237 0.839870
-9.024563 -3.358997 -2.184433 0.321730 -0.946395 0.028746 0.083909 0.686492
-9.024563 -3.314861 -0.384889 0.321730 -0.946395 0.028746 0.048413 0.687499
-13.215095 -4.778502 -2.017161 0.321730 -0.946395 0.028746 0.078331 0.602037
-13.215095 -4.822638 -3.123804 0.321730 -0.946395 0.028746 0.100160 0.601417
-9.024563 3.959080 -0.384883 -0.655009 0.755357 -0.019971 0.841632 0.717641
-9.024563 3.914944 -2.184430 -0.655009 0.755357 -0.019971 0.876979 0.721123
-13.006910 0.427647 -3.339988 -0.655009 0.755357 -0.019971 0.892139 0.803327
-13.006910 0.471780 -1.800971 -0.655009 0.755357 -0.019971 0.861910 0.800349
0.271902 -7.412881 7.664039 0.000000 -0.000000 1.000000 0.511046 0.750226
-0.271902 -7.412881 7.664039 0.000000 -0.000000 1.000000 0.521658 0.750226
-0.500675 -9.249526 7.664039 0.000000 -0.000000 1.000000 0.526460 0.787205
0.500675 -9.249526 7.664039 0.000000 -0.000000 1.000000 0.506918 0.787205
0.453236 -3.314862 2.067279 0.000000 0.806836 0.590776 0.200360 0.983532
-0.453237 -3.314862 2.067279 0.000000 0.806836 0.590776 0.182472 0.983532
-0.271902 -7.412881 7.664039 0.000000 0.806836 0.590776 0.186051 0.870625
0.271902 -7.412881 7.664039 0.000000 0.806836 0.590776 0.196781 0.870625
-3.006276 -3.314862 1.754677 0.000658 -0.999997 -0.002549 0.009504 0.810061
-9.024563 -3.314861 -0.384889 0.000658 -0.999997 -0.002549 0.048413 0.687499
-6.137232 -3.312847 0.155830 0.000658 -0.999997 -0.002549 0.039328 0.746028
-3.868615 -3.312847 0.155830 0.000658 -0.999997 -0.002549 0.040570 0.791777
-9.024563 -3.358997 -2.184433 0.015982 -0.999872 0.000000 0.083909 0.686492
-6.137232 -3.312847 -2.112783 0.015982 -0.999872 0.000000 0.084077 0.744758
-6.137232 -3.312847 -0.978478 0.015982 -0.999872 0.000000 0.061702 0.745393
-6.137232 -3.312847 -0.978478 0.000698 -1.000000 -0.000000 0.061702 0.745393
-6.137232 -3.312847 0.155830 0.000698 -1.000000 -0.000000 0.039328 0.746028
-9.024563 -3.314861 -0.384889 0.000698 -1.000000 -0.000000 0.048413 0.687499
-6.137232 -3.312847 -0.978478 0.005738 -0.999683 0.024518 0.061702 0.745393
-9.024563 -3.314861 -0.384889 0.005738 -0.999683 0.024518 0.048413 0.687499
-9.024563 -3.358997 -2.184433 0.005738 -0.999683 0.024518 0.083909 0.686492
-3.868615 -3.356983 -2.112783 0.000931 -0.999942 0.010683 0.085319 0.790507
-3.006276 -3.358997 -2.376427 0.000931 -0.999942 0.010683 0.090992 0.807749
-3.006276 -3.314862 1.754677 0.000931 -0.999942 0.010683 0.009504 0.810061
-3.006276 -3.314862 1.754677 -0.002337 -0.999997 -0.000000 0.009504 0.810061
-3.868615 -3.312847 0.155830 -0.002337 -0.999997 -0.000000 0.040570 0.791777
-3.868615 -3.312847 -0.978478 -0.002337 -0.999997 -0.000000 0.062944 0.791142
-3.006276 -3.314862 1.754677 -0.124589 -0.991458 0.038578 0.009504 0.810061
-3.868615 -3.312847 -0.978478 -0.124589 -0.991458 0.038578 0.062944 0.791142
-3.868615 -3.356983 -2.112783 -0.124589 -0.991458 0.038578 0.085319 0.790507
-9.024563 -3.358997 -2.184433 -0.001732 -0.988313 0.152430 0.083909 0.686492
-3.006276 -3.358997 -2.376427 -0.001732 -0.988313 0.152430 0.090992 0.807749
-3.868615 -3.356983 -2.112783 -0.001732 -0.988313 0.152430 0.085319 0.790507
-6.137232 -3.312847 -2.112783 -0.001732 -0.988313 0.152430 0.084077 0.744758
3.846043 -3.312847 0.144863 -0.000644 -0.999997 -0.002496 0.145837 0.649345
6.114660 -3.312847 0.144863 -0.000644 -0.999997 -0.002496 0.144688 0.695096
9.024563 -3.314861 -0.384889 -0.000644 -0.999997 -0.002496 0.153665 0.754055
3.006276 -3.314862 1.754677 -0.000644 -0.999997 -0.002496 0.114506 0.631576
6.114660 -3.356983 -2.123750 0.014474 -0.999895 -0.000000 0.189440 0.696271
9.024563 -3.314861 -2.184433 0.014474 -0.999895 -0.000000 0.189164 0.754986
9.024563 -3.314861 -0.384889 0.014474 -0.999895 -0.000000 0.153665 0.754055
9.024563 -3.314861 -0.384889 0.006386 -0.999224 0.038880 0.153665 0.754055
6.114660 -3.312847 0.144863 0.006386 -0.999224 0.038880 0.144688 0.695096
6.114660 -3.356983 -0.989445 0.006386 -0.999224 0.038880 0.167064 0.695683
6.114660 -3.356983 -0.989445 0.014474 -0.999895 0.000000 0.167064 0.695683
3.006276 -3.358997 -2.376427 0.054873 -0.998493 0.000000 0.195998 0.633714
3.846043 -3.312847 -2.123750 0.054873 -0.998493 0.000000 0.190588 0.650519
3.846043 -3.312847 -0.989445 0.054873 -0.998493 0.000000 0.168212 0.649932
3.846043 -3.312847 -0.989445 0.002399 -0.999997 -0.000000 0.168212 0.649932
3.846043 -3.312847 0.144863 0.002399 -0.999997 -0.000000 0.145837 0.649345
3.006276 -3.314862 1.754677 0.002399 -0.999997 -0.000000 0.114506 0.631576
3.846043 -3.312847 -0.989445 0.037283 -0.999248 0.010675 0.168212 0.649932
3.006276 -3.314862 1.754677 0.037283 -0.999248 0.010675 0.114506 0.631576
3.006276 -3.358997 -2.376427 0.037283 -0.999248 0.010675 0.195998 0.633714
6.114660 -3.356983 -2.123750 -0.000258 -0.999938 0.011147 0.189440 0.696271
3.846043 -3.312847 -2.123750 -0.000258 -0.999938 0.011147 0.190588 0.650519
3.006276 -3.358997 -2.376427 -0.000258 -0.999938 0.011147 0.195998 0.633714
9.024563 -3.314861 -2.184433 -0.000258 -0.999938 0.011147 0.189164 0.754986
-0.453237 -3.314862 2.067279 0.000000 -0.583502 0.812111 0.973314 0.295125
0.453236 -3.314862 2.067279 0.000000 -0.583502 0.812111 0.973437 0.313210
0.954046 -2.074432 2.958528 0.000000 -0.583502 0.812111 0.950200 0.326257
-0.954047 -2.074432 2.958528 0.000000 -0.583502 0.812111 0.949941 0.288189
13.239080 -4.590834 -2.042068 -0.021674 -0.999547 0.020872 0.184237 0.839870
13.239080 -4.590834 -3.098896 -0.021674 -0.999547 0.020872 0.205084 0.840417
14.256789 -4.634970 -3.098897 -0.021674 -0.999547 0.020872 0.204569 0.860941
14.256789 -4.590834 -2.042068 -0.021674 -0.999547 0.020872 0.183722 0.860394
-13.215095 -4.822638 -3.123804 -0.020699 -0.999587 0.019933 0.100160 0.601417
-13.215095 -4.778502 -2.017161 -0.020699 -0.999587 0.019933 0.078331 0.602037
-14.280775 -4.778502 -2.017161 -0.020699 -0.999587 0.019933 0.077748 0.580546
-14.280775 -4.778502 -3.123804 -0.020699 -0.999587 0.019933 0.099577 0.579927
-3.006276 -3.314862 1.754677 -0.214911 -0.683554 0.697531 0.972574 0.243261
-0.453237 -3.314862 2.067279 -0.603168 -0.326212 0.727805 0.973314 0.295125
-2.301663 -1.706117 2.067279 -0.449355 -0.092746 0.888516 0.941384 0.258774
-1.670398 4.728858 2.067281 -0.188543 0.084109 0.978454 0.814750 0.273476
-3.006274 6.872663 1.754682 -0.580584 0.374554 0.722892 0.771959 0.246597
-1.645880 13.798299 -1.006453 -0.789300 0.399762 0.465957 0.574197 0.693363
-0.165353 18.295773 -3.672066 -0.487320 0.803247 0.342448 0.612720 0.593917
-0.165354 18.295773 -4.107272 -0.452162 0.600818 -0.659169 0.621217 0.592650
-1.552033 13.798302 -2.987726 -0.819514 0.096500 -0.564867 0.612822 0.687459
-1.002092 -3.314861 -2.785609 -0.291269 -0.407727 -0.865383 0.224710 0.223411
-3.006276 -3.358997 -2.376427 -0.082583 -0.735649 -0.672292 0.250889 0.193104
-3.006274 6.872666 -2.376425 -0.540727 0.377911 -0.751488 0.400093 0.330487
-1.002091 4.684723 -2.785606 -0.102115 0.001740 -0.994751 0.342516 0.331884
14.256789 -4.634970 -3.098897 0.555498 -0.619373 -0.554765 0.925339 0.592650
14.488632 0.427168 -3.339647 0.706717 -0.000580 -0.707480 0.931727 0.693963
14.488632 0.471301 -1.801312 0.706717 0.001282 0.707450 0.901611 0.693963
14.256789 -4.590834 -2.042068 0.562761 -0.596942 0.571734 0.904650 0.592650
-14.488960 0.471782 -3.339988 -0.706748 0.001129 -0.707450 0.467083 0.685229
-14.280775 -4.778502 -3.123804 -0.573717 -0.593402 -0.564501 0.471576 0.579927
-14.280775 -4.778502 -2.017161 -0.570971 -0.590808 0.569994 0.493410 0.579927
-14.488960 0.471780 -1.800971 -0.706748 0.000549 0.707419 0.497446 0.685229
-2.597810 8.803607 -2.376424 -0.804621 0.155492 -0.573046 0.615547 0.790196
-2.040243 8.803607 1.258046 -0.741295 0.325510 0.586901 0.544264 0.799970
-1.552033 13.798302 -2.987726 -0.819514 0.096500 -0.564867 0.482750 0.446076
-0.496930 13.773510 -3.362130 -0.157933 -0.121067 -0.979980 0.469363 0.462395
-1.002091 8.759471 -2.785606 -0.130467 -0.041719 -0.990570 0.402194 0.386834
-2.597810 8.803607 -2.376424 -0.804621 0.155492 -0.573046 0.422979 0.362650
2.040246 8.803607 1.258046 0.742393 0.325205 0.585681 0.633356 0.633848
2.597812 8.759471 -2.376424 0.803156 0.155797 -0.574969 0.705419 0.642280
1.552035 13.754166 -2.987726 0.816858 0.094058 -0.569079 0.703117 0.745040
1.645882 13.798299 -1.006453 0.790826 0.399915 0.463240 0.664894 0.739870
-2.040243 8.803607 1.258046 -0.741295 0.325510 0.586901 0.733440 0.265026
-1.002091 8.803607 2.067282 -0.182134 0.261238 0.947905 0.734600 0.288143
-0.688097 13.820988 -0.635950 -0.202765 0.512284 0.834498 0.632436 0.288015
-1.645880 13.798299 -1.006453 -0.789300 0.399762 0.465957 0.632286 0.267797
-3.006274 6.872666 -2.376425 -0.540727 0.377911 -0.751488 0.621217 0.829232
-3.006274 6.872663 1.754682 -0.580584 0.374554 0.722892 0.540566 0.841258
3.006277 6.872664 1.754682 0.581896 0.375256 0.721488 0.630688 0.592650
3.006277 6.828531 -2.376425 0.537187 0.377544 -0.754234 0.710909 0.603147
2.289196 -1.706117 2.067279 0.450575 -0.093112 0.887845 0.942007 0.350365
0.453236 -3.314862 2.067279 0.603259 -0.325358 0.728111 0.973437 0.313210
3.006276 -3.314862 1.754677 0.219092 -0.682150 0.697592 0.973390 0.363216
3.006277 6.872664 1.754682 0.581896 0.375256 0.721488 0.772775 0.366552
1.670400 4.728858 2.067281 0.188238 0.084078 0.978484 0.815203 0.340127
1.002093 8.803607 2.067282 0.182134 0.261238 0.947905 0.734872 0.328128
2.040246 8.803607 1.258046 0.742393 0.325205 0.585681 0.733994 0.346435
1.645882 13.798299 -1.006453 0.790826 0.399915 0.463240 0.632733 0.333471
0.688099 13.820988 -0.635950 0.202765 0.512284 0.834498 0.632622 0.315471
0.165355 18.251637 -4.107273 0.499466 0.531144 -0.684347 0.710909 0.839659
0.165355 18.295773 -3.672066 0.513779 0.789331 0.336070 0.702458 0.838553
1.002093 8.759471 -2.785606 0.130253 -0.042177 -0.990570 0.375727 0.416877
0.496932 13.773510 -3.362130 0.153844 -0.122074 -0.980499 0.456238 0.477293
1.552035 13.754166 -2.987726 0.816858 0.094058 -0.569079 0.441758 0.492607
2.597812 8.759471 -2.376424 0.803156 0.155797 -0.574969 0.354366 0.440533
1.002093 4.684723 -2.785606 0.102176 0.001740 -0.994751 0.316049 0.361927
3.006277 6.828531 -2.376425 0.537187 0.377544 -0.754234 0.320692 0.420616
1.002092 -3.358997 -2.785609 0.289987 -0.413221 -0.863186 0.198243 0.253454
3.006276 -3.358997 -2.376427 0.089755 -0.730308 -0.677145 0.171488 0.283233
-0.165354 18.295773 -4.107272 -0.452162 0.600818 -0.659169 0.703844 0.858122
-0.165353 18.295773 -3.672066 -0.487320 0.803247 0.342448 0.703844 0.849342
0.165355 18.295773 -3.672066 0.513779 0.789331 0.336070 0.710369 0.849342
0.165355 18.251637 -4.107273 0.499466 0.531144 -0.684347 0.710369 0.858122
-0.500675 -9.249523 1.754674 -0.718925 -0.693930 0.039277 0.526678 0.699141
-0.500675 -9.249523 -0.297612 -0.609058 -0.674673 -0.416913 0.526678 0.740543
0.500675 -9.293659 -0.297612 0.584216 -0.698050 -0.413984 0.506918 0.740543
0.500675 -9.293659 1.754674 0.694632 -0.718192 0.040590 0.506918 0.699141
9.024563 -3.314861 -2.184433 -0.191351 -0.693136 -0.694906 0.091876 0.373324
9.024563 3.914944 -2.184430 0.391156 0.635151 -0.665975 0.198408 0.471417
13.007238 0.471303 -3.339647 -0.222022 0.189520 -0.956420 0.095546 0.484829
13.239080 -4.590834 -3.098896 -0.180303 -0.713706 -0.676809 0.018176 0.419884
9.024563 3.959080 -0.384883 0.572893 0.579424 0.579638 0.828273 0.479307
9.024563 -3.314861 -0.384889 0.183172 -0.679830 0.710105 0.971513 0.476925
13.239080 -4.590834 -2.042068 -0.037111 -0.780297 0.624287 0.995126 0.555663
13.007238 0.471301 -1.801312 0.088382 0.263955 0.960448 0.895713 0.553411
-9.024563 3.914944 -2.184430 -0.391919 0.633931 -0.666677 0.436763 0.200857
-9.024563 -3.358997 -2.184433 0.213630 -0.691671 -0.689840 0.330231 0.102765
-13.215095 -4.822638 -3.123804 0.177343 -0.728172 -0.662008 0.364796 0.020816
-13.006910 0.427647 -3.339988 0.220374 0.184423 -0.957793 0.439093 0.094879
-9.024563 -3.314861 -0.384889 -0.168584 -0.671834 0.721244 0.969065 0.116830
-9.024563 3.959080 -0.384883 -0.573992 0.578570 0.579424 0.825824 0.119212
-13.006910 0.471780 -1.800971 -0.083438 0.266091 0.960295 0.892174 0.034410
-13.215095 -4.778502 -2.017161 0.039247 -0.775689 0.629871 0.995264 0.027894
-0.453237 -3.314862 2.067279 -0.603168 -0.326212 0.727805 0.340764 0.678022
-1.002092 -3.314861 -2.785609 -0.291269 -0.407727 -0.865383 0.341579 0.579927
-0.500675 -9.249523 -0.297612 -0.609058 -0.674673 -0.416913 0.457611 0.630477
-0.500675 -9.249523 1.754674 -0.718925 -0.693930 0.039277 0.457611 0.671871
0.500675 -9.293659 -0.297612 0.584216 -0.698050 -0.413984 0.116195 0.164301
-0.500675 -9.249523 -0.297612 -0.609058 -0.674673 -0.416913 0.129419 0.149290
1.002092 -3.358997 -2.785609 0.289987 -0.413221 -0.863186 0.215510 0.791824
0.453236 -3.314862 2.067279 0.603259 -0.325358 0.728111 0.214556 0.693313
0.500675 -9.293659 1.754674 0.694632 -0.718192 0.040590 0.331292 0.698367
0.500675 -9.293659 -0.297612 0.584216 -0.698050 -0.413984 0.331292 0.739442
-0.500675 -9.249526 7.664039 -0.601398 -0.568590 0.561205 0.457611 0.791063
-0.271902 -7.412881 7.664039 -0.586627 0.365184 0.722831 0.421132 0.791098
0.500675 -9.249526 7.664039 0.586291 -0.576556 0.569018 0.506918 0.579927
-0.500675 -9.249526 7.664039 -0.601398 -0.568590 0.561205 0.526678 0.579927
0.271902 -7.412881 7.664039 0.586688 0.365123 0.722800 0.294793 0.579927
0.500675 -9.249526 7.664039 0.586291 -0.576556 0.569018 0.331292 0.580094
0.453236 -3.314862 2.067279 0.603259 -0.325358 0.728111 0.090905 0.871404
2.289196 -1.706117 2.067279 0.450575 -0.093112 0.887845 0.090905 0.908489
0.954046 -2.074432 2.958528 0.330515 -0.324931 0.886074 0.073309 0.881553
-0.954047 -2.074432 2.958528 -0.328745 -0.324778 0.886807 0.073309 0.950665
-2.301663 -1.706117 2.067279 -0.449355 -0.092746 0.888516 0.075675 0.918172
-0.453237 -3.314862 2.067279 -0.603168 -0.326212 0.727805 0.093478 0.950665
14.488632 0.427168 -3.339647 0.706717 -0.000580 -0.707480 0.075982 0.507035
14.256789 -4.634970 -3.098897 0.555498 -0.619373 -0.554765 0.004736 0.435139
14.256789 -4.590834 -2.042068 0.562761 -0.596942 0.571734 0.995264 0.575968
14.488632 0.471301 -1.801312 0.706717 0.001282 0.707450 0.895914 0.582966
-14.280775 -4.778502 -3.123804 -0.573717 -0.593402 -0.564501 0.378869 0.004842
-14.488960 0.471782 -3.339988 -0.706748 0.001129 -0.707450 0.458665 0.072663
-14.488960 0.471780 -1.800971 -0.706748 0.000549 0.707419 0.891973 0.004842
-14.280775 -4.778502 -2.017161 -0.570971 -0.590808 0.569994 0.995119 0.006633
0.165355 18.295773 -3.672066 0.513779 0.789331 0.336070 0.540611 0.297481
-0.165353 18.295773 -3.672066 -0.487320 0.803247 0.342448 0.540566 0.290883
-0.165354 18.295773 -4.107272 -0.452162 0.600818 -0.659169 0.531094 0.528236
0.165355 18.251637 -4.107273 0.499466 0.531144 -0.684347 0.526727 0.533193
-0.954047 -2.074432 2.958528 0.000000 0.027326 0.999627 0.949941 0.288189
0.954046 -2.074432 2.958528 0.000000 0.027326 0.999627 0.950200 0.326257
0.954046 2.612610 2.830400 0.000000 0.027326 0.999627 0.857740 0.327411
-0.954047 2.612610 2.830400 0.000000 0.027326 0.999627 0.857482 0.289343
1.670400 4.728858 2.067281 0.000000 0.339219 0.940707 0.815203 0.340127
-1.670398 4.728858 2.067281 0.000000 0.339219 0.940707 0.814750 0.273476
-0.954047 2.612610 2.830400 0.000000 0.339219 0.940707 0.857482 0.289343
0.954046 2.612610 2.830400 0.000000 0.339219 0.940707 0.857740 0.327411
-0.954047 -2.074432 2.958528 -0.328745 -0.324778 0.886807 0.949941 0.288189
-0.954047 2.612610 2.830400 -0.276467 0.137425 0.951109 0.857482 0.289343
0.954046 -2.074432 2.958528 0.330515 -0.324931 0.886074 0.950200 0.326257
0.954046 2.612610 2.830400 0.277871 0.137242 0.950743 0.857740 0.327411
6.497984 -4.306355 1.595538 0.000000 -0.000000 1.000000 0.399211 0.994433
3.502923 -4.306355 1.595538 0.000000 -0.000000 1.000000 0.340764 0.993876
3.502923 -7.413816 1.595538 0.000000 -0.000000 1.000000 0.340764 0.931308
6.497984 -7.413816 1.595538 0.000000 -0.000000 1.000000 0.399211 0.931864
3.502923 -4.306355 1.595538 -0.866025 -0.000000 0.500000 0.603935 0.851032
2.005392 -4.306353 -0.998260 -0.866025 -0.000000 0.500000 0.601712 0.903928
2.005392 -7.413816 -0.998260 -0.866025 -0.000000 0.500000 0.540566 0.903837
3.502923 -7.413816 1.595538 -0.866025 -0.000000 0.500000 0.542789 0.850941
2.005392 -4.306353 -0.998260 -0.866026 0.000000 -0.500000 0.601712 0.903928
3.502922 -4.306353 -3.592060 -0.866026 0.000000 -0.500000 0.603935 0.955666
3.502922 -7.457952 -3.592060 -0.866026 0.000000 -0.500000 0.542789 0.955575
2.005392 -7.413816 -0.998260 -0.866026 0.000000 -0.500000 0.540566 0.903837
3.502922 -4.306353 -3.592060 0.000000 0.000000 -1.000000 0.526184 0.975518
6.497983 -4.350489 -3.592060 0.000000 0.000000 -1.000000 0.467083 0.975519
6.497983 -7.457952 -3.592060 0.000000 0.000000 -1.000000 0.467083 0.912901
3.502922 -7.457952 -3.592060 0.000000 0.000000 -1.000000 0.526184 0.912901
6.497983 -4.350489 -3.592060 0.866026 0.000000 -0.500000 0.694372 0.849342
7.995513 -4.350489 -0.998261 0.866026 0.000000 -0.500000 0.691770 0.897481
7.995513 -7.457952 -0.998261 0.866026 0.000000 -0.500000 0.630688 0.898174
6.497983 -7.457952 -3.592060 0.866026 0.000000 -0.500000 0.633291 0.850034
7.995513 -4.350489 -0.998261 0.866026 -0.000000 0.500000 0.691770 0.897481
6.497984 -4.306355 1.595538 0.866026 -0.000000 0.500000 0.694372 0.953169
6.497984 -7.413816 1.595538 0.866026 -0.000000 0.500000 0.633291 0.953861
7.995513 -7.457952 -0.998261 0.866026 -0.000000 0.500000 0.630688 0.898174
-3.499380 -4.306355 1.595538 0.000000 -0.000000 1.000000 0.273003 0.995158
-6.494441 -4.306355 1.595538 0.000000 -0.000000 1.000000 0.214556 0.994602
-6.494441 -7.413816 1.595538 0.000000 -0.000000 1.000000 0.214556 0.932034
-3.499380 -7.413816 1.595538 0.000000 -0.000000 1.000000 0.273003 0.932590
-6.494441 -4.306355 1.595538 -0.866025 -0.000000 0.500000 0.173000 0.870715
-7.991972 -4.306353 -0.998260 -0.866025 -0.000000 0.500000 0.170778 0.923611
-7.991972 -7.413816 -0.998260 -0.866025 -0.000000 0.500000 0.109632 0.923521
-6.494441 -7.413816 1.595538 -0.866025 -0.000000 0.500000 0.111855 0.870625
-7.991972 -4.306353 -0.998260 -0.866026 0.000000 -0.500000 0.170778 0.923611
-6.494442 -4.306353 -3.592060 -0.866026 0.000000 -0.500000 0.173000 0.975349
-6.494442 -7.457952 -3.592060 -0.866026 0.000000 -0.500000 0.111855 0.975259
-7.991972 -7.413816 -0.998260 -0.866026 0.000000 -0.500000 0.109632 0.923521
-6.494442 -4.306353 -3.592060 0.000000 0.000000 -1.000000 0.004736 0.871404
-3.499381 -4.350489 -3.592060 0.000000 0.000000 -1.000000 0.063837 0.871404
-3.499381 -7.457952 -3.592060 0.000000 0.000000 -1.000000 0.063837 0.934021
-6.494442 -7.457952 -3.592060 0.000000 0.000000 -1.000000 0.004736 0.934021
-3.499381 -4.350489 -3.592060 0.866025 0.000000 -0.500000 0.530766 0.798699
-2.001850 -4.306353 -0.998261 0.866025 0.000000 -0.500000 0.528164 0.846838
-2.001850 -7.413816 -0.998261 0.866025 0.000000 -0.500000 0.467083 0.847530
-3.499381 -7.457952 -3.592060 0.866025 0.000000 -0.500000 0.469685 0.799391
-2.001850 -4.306353 -0.998261 0.866025 -0.000000 0.500000 0.528164 0.846838
-3.499380 -4.306355 1.595538 0.866025 -0.000000 0.500000 0.530766 0.902525
-3.499380 -7.413816 1.595538 0.866025 -0.000000 0.500000 0.469685 0.903218
-2.001850 -7.413816 -0.998261 0.866025 -0.000000 0.500000 0.467083 0.847530
-6.494441 -4.306355 1.595538 0.000000 0.823051 0.567968 0.443130 0.891414
-3.499380 -4.306355 1.595538 0.000000 0.823051 0.567968 0.391947 0.921624
-3.868615 -3.312847 0.155830 0.000000 0.823051 0.567968 0.384052 0.892747
-6.137232 -3.312847 0.155830 0.000000 0.823051 0.567968 0.422821 0.869864
-6.137232 -3.312847 -2.112783 0.013921 0.830095 -0.557449 0.400438 0.830229
-3.868615 -3.356983 -2.112783 0.013921 0.830095 -0.557449 0.361669 0.853112
-3.499381 -4.350489 -3.592060 0.013921 0.830095 -0.557449 0.340764 0.830992
-6.494442 -4.306353 -3.592060 0.013921 0.830095 -0.557449 0.391947 0.800781
3.502923 -4.306355 1.595538 0.000000 0.825058 0.565049 0.214556 0.892140
6.497984 -4.306355 1.595538 0.000000 0.825058 0.565049 0.214556 0.831718
6.114660 -3.312847 0.144863 0.000000 0.825058 0.565049 0.243182 0.839451
3.846043 -3.312847 0.144863 0.000000 0.825058 0.565049 0.243182 0.885217
3.846043 -3.312847 -2.123750 0.013889 0.828229 -0.560217 0.287949 0.885217
6.114660 -3.356983 -2.123750 0.013889 0.828229 -0.560217 0.287949 0.839451
6.497983 -4.350489 -3.592060 0.013889 0.828229 -0.560217 0.316923 0.831718
3.502922 -4.306353 -3.592060 0.013889 0.828229 -0.560217 0.316923 0.892140
6.497984 -7.413816 1.595538 0.395917 -0.603809 0.691794 0.832219 0.903645
3.502923 -7.413816 1.595538 -0.397839 -0.605609 0.689108 0.832219 0.843224
5.000453 -7.457952 -0.998261 -0.004883 -0.999939 0.008484 0.883403 0.873435
2.005392 -7.413816 -0.998260 -0.797082 -0.603809 0.002991 0.883403 0.813013
3.502922 -7.457952 -3.592060 -0.398144 -0.611774 -0.683493 0.934586 0.843224
6.497983 -7.457952 -3.592060 0.396191 -0.609973 -0.686239 0.934586 0.903645
7.995513 -7.457952 -0.998261 0.791009 -0.611774 0.003052 0.883403 0.933856
-3.499380 -7.413816 1.595538 0.397870 -0.605609 0.689108 0.822748 0.903645
-6.494441 -7.413816 1.595538 -0.397839 -0.605609 0.689108 0.771564 0.933856
-4.996911 -7.457952 -0.998261 0.000000 -0.999939 0.008484 0.771564 0.873435
-7.991972 -7.413816 -0.998260 -0.797082 -0.603809 0.002991 0.720381 0.903645
-6.494442 -7.457952 -3.592060 -0.398144 -0.611774 -0.683493 0.720381 0.843224
-3.499381 -7.457952 -3.592060 0.398144 -0.611774 -0.683493 0.771564 0.813013
-2.001850 -7.413816 -0.998261 0.797082 -0.603809 0.002991 0.822748 0.843224
-2.001850 -4.306353 -0.998261 0.911527 0.411176 -0.003235 0.340764 0.891414
-3.868615 -3.312847 -0.978478 0.938963 -0.343547 0.016785 0.372861 0.872930
-3.868615 -3.312847 0.155830 0.553056 -0.512345 0.656941 0.384052 0.892747
-3.499380 -4.306355 1.595538 0.442152 0.437056 0.783227 0.391947 0.921624
-6.137232 -3.312847 -0.978478 -0.937742 -0.346599 0.021912 0.411630 0.850046
-7.991972 -4.306353 -0.998260 -0.913602 0.406537 -0.000519 0.443130 0.830992
-6.494441 -4.306355 1.595538 -0.441877 0.436537 0.783654 0.443130 0.891414
-6.137232 -3.312847 0.155830 -0.611927 -0.389050 0.688589 0.422821 0.869864
6.497983 -4.350489 -3.592060 0.444868 0.436964 -0.781732 0.316923 0.831718
6.114660 -3.356983 -2.123750 0.598712 -0.495865 -0.628986 0.287949 0.839451
6.114660 -3.356983 -0.989445 0.952574 -0.304147 0.008393 0.265566 0.839451
7.995513 -4.350489 -0.998261 0.913541 0.406720 -0.002838 0.265740 0.801507
3.846043 -3.312847 -2.123750 -0.563768 -0.528092 -0.634999 0.287949 0.885217
3.502922 -4.306353 -3.592060 -0.437819 0.441298 -0.783258 0.316923 0.892140
2.005392 -4.306353 -0.998260 -0.914396 0.404767 -0.000214 0.265740 0.922350
3.846043 -3.312847 -0.989445 -0.931394 -0.363659 0.013733 0.265566 0.885217
-6.137232 -3.312847 -2.112783 -0.656117 -0.563952 -0.501389 0.400438 0.830229
-6.494442 -4.306353 -3.592060 -0.437910 0.442701 -0.782434 0.391947 0.800781
-3.499381 -4.350489 -3.592060 0.442915 0.434492 -0.784204 0.340764 0.830992
-3.868615 -3.356983 -2.112783 0.648274 -0.538652 -0.538102 0.361669 0.853112
6.114660 -3.312847 0.144863 0.622120 -0.399274 0.673421 0.243182 0.839451
6.497984 -4.306355 1.595538 0.443709 0.441298 0.779962 0.214556 0.831718
3.502923 -4.306355 1.595538 -0.441328 0.436872 0.783776 0.214556 0.892140
3.846043 -3.312847 0.144863 -0.550951 -0.521592 0.651418 0.243182 0.885217
13.239080 5.427671 -3.098891 0.021674 0.999547 -0.020872 0.282475 0.953354
13.239080 5.427671 -2.042062 0.021674 0.999547 -0.020872 0.282475 0.932034
14.256790 5.427671 -2.042062 0.021674 0.999547 -0.020872 0.302558 0.932034
14.256790 5.383535 -3.098891 0.021674 0.999547 -0.020872 0.302558 0.953354
-13.215095 5.615342 -2.017155 0.020699 0.999587 -0.019933 0.429712 0.931308
-13.215095 5.571206 -3.123798 0.020699 0.999587 -0.019933 0.429712 0.953633
-14.280776 5.615342 -3.123798 0.020699 0.999587 -0.019933 0.408683 0.953633
-14.280776 5.615342 -2.017155 0.020699 0.999587 -0.019933 0.408683 0.931308
13.007238 0.471303 -3.339647 -0.998908 0.046725 0.000000 0.944058 0.813013
13.007238 0.471301 -1.801312 -0.998908 0.046725 0.000000 0.974408 0.813013
13.239080 5.427671 -2.042062 -0.998908 0.046725 0.000000 0.969604 0.913070
13.239080 5.427671 -3.098891 -0.998908 0.046725 0.000000 0.948754 0.913070
-13.006910 0.471780 -1.800971 0.999181 0.040442 -0.001349 0.941199 0.592650
-13.006910 0.427647 -3.339988 0.999181 0.040442 -0.001349 0.971329 0.592650
-13.215095 5.571206 -3.123798 0.999181 0.040442 -0.001349 0.967704 0.696381
-13.215095 5.615342 -2.017155 0.999181 0.040442 -0.001349 0.946039 0.696381
14.256790 5.427671 -2.042062 0.567217 0.606800 0.556780 0.797977 0.579248
13.239080 5.427671 -2.042062 -0.560320 0.610126 0.560106 0.797839 0.558944
14.256790 5.383535 -3.098891 0.574084 0.584399 -0.573473 0.927523 0.793975
14.256790 5.427671 -2.042062 0.567217 0.606800 0.556780 0.906833 0.793975
13.239080 5.427671 -3.098891 -0.557451 0.607288 -0.566027 0.164904 0.554988
14.256790 5.383535 -3.098891 0.574084 0.584399 -0.573473 0.151464 0.570243
-14.280776 5.615342 -3.123798 -0.559526 0.603778 -0.567736 0.531094 0.145007
-13.215095 5.571206 -3.123798 0.575396 0.581744 -0.574877 0.517021 0.160982
-14.280776 5.615342 -2.017155 -0.562273 0.606464 0.562120 0.493113 0.789015
-14.280776 5.615342 -3.123798 -0.559526 0.603778 -0.567736 0.471280 0.789015
-13.215095 5.615342 -2.017155 0.568804 0.603290 0.558946 0.790586 0.031298
-14.280776 5.615342 -2.017155 -0.562273 0.606464 0.562120 0.790441 0.010037
4 0 1 2 3
4 4 5 6 7
4 8 9 10 11
4 12 13 14 15
4 16 17 18 19
4 20 21 22 23
4 24 25 26 27
4 28 29 30 31
4 32 33 34 35
4 36 37 38 39
4 40 41 42 43
4 44 45 46 47
4 48 49 50 51
4 52 53 54 55
4 56 57 58 59
3 60 61 62
3 63 64 65
3 66 67 68
3 69 70 71
3 72 73 74
3 75 76 77
4 78 79 80 81
4 82 83 84 85
3 86 87 88
3 89 90 91
3 88 92 86
3 93 94 95
3 96 97 98
3 99 100 101
4 102 103 104 105
4 106 107 108 109
4 110 111 112 113
4 114 115 116 117
3 118 119 120
3 120 121 122
3 118 120 122
4 123 124 125 126
4 127 128 129 130
4 131 132 133 134
4 135 136 137 138
4 126 139 140 123
4 141 142 143 144
4 145 146 147 148
4 149 150 151 152
4 139 153 154 140
4 144 143 130 129
4 155 156 146 145
4 122 121 150 149
3 157 158 159
3 159 160 161
3 159 161 157
4 162 161 160 163
4 164 165 162 163
4 166 167 148 147
4 168 169 170 171
4 172 168 171 173
4 174 172 173 175
4 150 121 161 162
4 165 151 150 162
4 176 177 178 179
4 143 142 169 168
4 130 143 168 172
4 127 130 172 174
4 180 181 182 183
4 184 185 186 187
4 188 189 190 191
4 192 193 194 195
4 196 197 198 199
4 200 201 202 203
4 127 174 204 205
4 206 207 208 209
4 200 203 210 211
4 180 183 212 213
4 208 207 214 215
3 216 217 218
3 219 220 221
4 187 186 222 223
4 191 190 224 225
4 195 194 226 227
4 199 198 228 229
3 230 165 164
4 231 151 165 230
3 152 151 231
3 141 232 142
4 169 142 232 233
3 170 169 233
4 234 235 236 237
4 238 239 240 241
4 121 120 242 243
4 244 157 161 245
4 246 247 248 249
4 250 251 252 253
4 254 255 256 257
4 258 259 260 261
4 262 263 264 265
4 266 267 268 269
4 270 271 272 273
4 274 275 276 277
4 278 279 280 281
4 282 283 284 285
4 286 287 288 289
4 290 291 292 293
4 294 295 296 297
4 298 299 300 301
4 302 303 304 305
4 306 307 308 309
3 310 311 312
3 311 313 312
3 313 314 312
3 314 315 312
3 315 316 312
3 316 310 312
3 317 318 319
3 318 320 319
3 320 321 319
3 321 322 319
3 322 323 319
3 323 317 319
4 324 325 326 327
4 328 329 330 331
4 332 333 334 335
4 336 337 338 339
4 340 341 329 328
4 342 343 325 324
4 335 334 344 345
4 339 338 346 347
4 348 349 350 351
4 352 353 354 355
4 356 357 358 359
4 360 361 362 363
4 191 225 364 365
4 133 132 366 367
4 222 186 368 369
4 195 227 370 371
4 135 138 372 373
4 228 198 374 375
