# Blender v2.79 (sub 0) OBJ File: 'sowa_mesh.blend'
# www.blender.org
mtllib sowaloobj.mtl
o sowalo_Cube.002
v 7.028164 1.865437 -15.619721
v 9.028165 1.865436 -17.619722
v 13.028163 1.865438 -17.619722
v 15.028166 1.865440 -15.619723
v 15.028168 1.865445 -5.619722
v 13.028165 1.865444 -5.619722
v 13.028167 1.865447 -1.619722
v 15.028168 1.865447 -1.619723
v 15.028168 1.865449 0.380277
v 7.028167 1.865448 4.380278
v 5.028167 1.865447 4.380278
v 7.028166 1.865442 -5.619721
v 5.028166 1.865443 -3.619721
v 5.028166 1.865444 -1.619721
v 7.028163 -2.401043 -15.619720
v 9.028163 -2.401043 -17.619719
v 13.028163 -2.401042 -17.619719
v 15.028164 -2.401040 -15.619721
v 15.028166 -2.401034 -5.619720
v 13.028165 -2.401035 -5.619720
v 13.028165 -2.401033 -1.619720
v 15.028166 -2.401032 -1.619720
v 15.028166 -2.401031 0.380279
v 7.028166 -2.401031 4.380280
v 5.028166 -2.401032 4.380280
v 7.028165 -2.401037 -5.619719
v 5.028165 -2.401037 -3.619719
v 5.028165 -2.401036 -1.619719
v -4.971834 1.865437 -3.619720
v -6.971834 1.865436 -5.619720
v -4.971833 1.865441 4.380280
v -6.971833 1.865441 4.380280
v -14.971832 1.865438 0.380282
v -14.971832 1.865436 -1.619718
v -12.971832 1.865437 -1.619718
v -12.971832 1.865434 -5.619718
v -14.971832 1.865434 -5.619718
v -14.971834 1.865429 -15.619718
v -12.971834 1.865427 -17.619719
v -8.971834 1.865429 -17.619719
v -6.971836 1.865430 -15.619720
v -4.971835 -2.401042 -1.619717
v -4.971835 -2.401043 -3.619717
v -6.971835 -2.401044 -5.619717
v -4.971834 -2.401038 4.380282
v -6.971834 -2.401038 4.380282
v -14.971834 -2.401042 0.380284
v -14.971834 -2.401043 -1.619716
v -12.971834 -2.401043 -1.619716
v -12.971834 -2.401045 -5.619715
v -14.971834 -2.401045 -5.619715
v -14.971836 -2.401051 -15.619716
v -12.971836 -2.401052 -17.619715
v -8.971836 -2.401051 -17.619715
v -6.971837 -2.401050 -15.619718
v 5.028167 2.747390 4.380278
v 3.028166 2.747387 -1.619721
v 3.028167 1.865443 -1.619721
v 3.028166 1.865442 -3.619721
v 3.028166 2.747386 -3.619721
v -2.971834 2.747386 -3.619720
v -2.971834 2.747387 -1.619720
v -4.971834 2.747387 -1.619720
v -4.971833 2.747390 4.380280
v -0.971833 2.747390 4.380279
v -0.971833 2.747389 2.380279
v 1.028167 2.747389 2.380279
v 1.028167 2.747390 4.380279
v 5.028167 -3.252610 4.380281
v 5.028166 -3.252613 -1.619718
v 3.028166 -3.252613 -1.619718
v 3.028166 -3.252614 -3.619718
v -2.971834 -3.252614 -3.619717
v -2.971834 -3.252613 -1.619717
v -4.971834 -3.252613 -1.619717
v -4.971833 -3.252610 4.380283
v -4.971834 1.865438 -1.619720
v 5.028166 2.747385 -1.619722
v -2.971833 1.865441 -1.619720
v -2.971833 1.865440 -3.619720
v -2.971835 -2.401039 -1.619717
v -2.971835 -2.401040 -3.619717
v 3.028166 -2.401037 -1.619718
v 3.028166 -2.401038 -3.619718
v -0.971834 -1.252614 -3.619718
v 1.028166 -1.252614 -3.619719
v -0.971834 0.747386 -3.619720
v 1.028167 -1.252610 4.380281
v 1.028166 0.747386 -3.619720
v -2.971836 -1.252617 -7.619718
v -0.971835 -1.252617 -7.619718
v -2.971835 0.747383 -7.619719
v -0.971835 0.747383 -7.619719
v 1.028165 -1.252617 -7.619719
v 3.028165 -1.252617 -7.619719
v 3.028165 0.747383 -7.619720
v 1.028165 0.747383 -7.619720
v 1.028167 0.747389 2.380280
v 1.028167 0.747390 4.380280
v -0.971833 0.747389 2.380280
v -0.971833 0.747390 4.380280
v 1.028167 0.747391 6.380280
v -0.971833 0.747391 6.380280
v -4.971832 0.747391 6.380281
v 1.028168 0.747393 10.380281
v -0.971832 0.747394 10.380281
v -0.971832 2.747394 10.380280
v -0.971833 2.747391 6.380279
v -4.971832 2.747391 6.380280
v -4.971832 2.747393 10.380280
v 1.028168 2.747394 10.380280
v 1.028167 2.747391 6.380279
v 5.028167 2.747391 6.380278
v 5.028168 2.747394 10.380278
v -4.971832 0.747393 10.380281
v -8.971831 0.747393 10.380283
v -8.971831 -1.252606 10.380284
v -4.971833 -1.252606 10.380282
v -4.971833 -1.252609 6.380282
v 5.028167 -1.252609 6.380280
v 5.028168 -1.252606 10.380280
v 9.028168 -1.252607 10.380280
v 9.028168 0.747393 10.380280
v 5.028168 0.747393 10.380280
v 5.028168 0.747391 6.380279
v -4.971832 -3.252607 10.380283
v 5.028168 -3.252606 10.380281
v -0.971832 -1.252606 10.380282
v 1.028168 -1.252607 10.380282
v 3.028168 -1.252606 10.380280
v -2.971833 -1.252607 10.380282
v 3.028168 0.747393 10.380280
v -2.971832 0.747394 10.380281
v -2.971831 0.747396 14.380283
v -0.971832 0.747396 14.380283
v -0.971831 -1.252604 14.380284
v -2.971832 -1.252604 14.380284
v 1.028168 0.747396 14.380281
v 3.028169 0.747396 14.380281
v 1.028169 -1.252604 14.380282
v 3.028169 -1.252604 14.380282
vt 0.890865 0.647653
vt 0.932716 0.647653
vt 0.932716 0.667271
vt 0.890865 0.667271
vt 0.932716 0.423723
vt 0.932716 0.462960
vt 0.890865 0.462960
vt 0.890865 0.423723
vt 0.987533 0.250523
vt 0.987533 0.270141
vt 0.945682 0.270141
vt 0.945682 0.250523
vt 0.987533 0.588797
vt 0.987533 0.608416
vt 0.945682 0.608416
vt 0.945682 0.588797
vt 0.898512 0.942902
vt 0.913404 0.942918
vt 0.913388 0.957810
vt 0.898496 0.957794
vt 0.987533 0.423723
vt 0.987533 0.462960
vt 0.945682 0.462960
vt 0.945682 0.423723
vt 0.905618 0.179931
vt 0.880259 0.215250
vt 0.862781 0.198821
vt 0.889495 0.166574
vt 0.726736 0.838214
vt 0.726736 0.829431
vt 0.788620 0.829431
vt 0.788620 0.838214
vt 0.943171 0.957843
vt 0.944274 0.974980
vt 0.913371 0.972702
vt 0.987533 0.647653
vt 0.945682 0.647653
vt 0.170542 0.980948
vt 0.170542 0.938383
vt 0.189312 0.938383
vt 0.189312 0.980948
vt 0.170542 0.957153
vt 0.213107 0.938383
vt 0.213107 0.957153
vt 0.935099 0.177165
vt 0.921742 0.193288
vt 0.918975 0.163808
vt 0.601263 0.811360
vt 0.601263 0.853925
vt 0.516133 0.853925
vt 0.516133 0.811360
vt 0.860925 0.885491
vt 0.860890 0.853724
vt 0.890683 0.862242
vt 0.890700 0.877133
vt 0.890865 0.774627
vt 0.932716 0.774627
vt 0.932716 0.794245
vt 0.890865 0.794245
vt 0.189312 0.768123
vt 0.189312 0.810688
vt 0.170542 0.810688
vt 0.170542 0.768123
vt 0.935359 0.862192
vt 0.935375 0.877084
vt 0.905592 0.877117
vt 0.905575 0.862225
vt 0.868703 0.966312
vt 0.868738 0.934544
vt 0.932716 0.270141
vt 0.932716 0.297886
vt 0.890865 0.297886
vt 0.890865 0.270141
vt 0.870605 0.123737
vt 0.857248 0.139860
vt 0.841125 0.126503
vt 0.854482 0.110380
vt 0.935099 0.177165
vt 0.921742 0.193289
vt 0.889495 0.166575
vt 0.902852 0.150451
vt 0.921742 0.193289
vt 0.908385 0.209412
vt 0.876138 0.182698
vt 0.889495 0.166575
vt 0.664853 0.879469
vt 0.685481 0.879469
vt 0.685481 0.900097
vt 0.664853 0.900097
vt 0.935099 0.177165
vt 0.902852 0.150451
vt 0.085412 0.895817
vt 0.042847 0.895817
vt 0.042847 0.853253
vt 0.085412 0.853253
vt 0.873372 0.153217
vt 0.860015 0.169341
vt 0.788620 0.941353
vt 0.726736 0.920725
vt 0.726736 0.858842
vt 0.042847 0.768123
vt 0.706109 0.858842
vt 0.706109 0.920725
vt 0.516133 0.939055
vt 0.473568 0.939055
vt 0.473568 0.853925
vt 0.749917 0.316063
vt 0.771764 0.316063
vt 0.771764 0.337910
vt 0.749917 0.337910
vt 0.799476 0.227944
vt 0.765081 0.199451
vt 0.787697 0.190997
vt 0.803820 0.204354
vt 0.913421 0.928027
vt 0.944274 0.925925
vt 0.943188 0.942951
vt 0.895028 0.225535
vt 0.862781 0.198821
vt 0.213107 0.810688
vt 0.170542 0.791918
vt 0.213107 0.791918
vt 0.170542 0.999718
vt 0.042847 0.999718
vt 0.042847 0.980948
vt 0.945682 0.667271
vt 0.987533 0.667271
vt 0.987533 0.686890
vt 0.945682 0.686890
vt 0.706109 0.850058
vt 0.726736 0.850059
vt 0.945682 0.297886
vt 0.987533 0.297886
vt 0.961813 0.144919
vt 0.948456 0.161042
vt 0.916209 0.134328
vt 0.929566 0.118204
vt 0.068328 0.476604
vt 0.068328 0.544650
vt 0.000282 0.544650
vt 0.000282 0.476604
vt 0.902852 0.150451
vt 0.717953 0.858842
vt 0.717953 0.838214
vt 0.697325 0.858842
vt 0.255672 0.853253
vt 0.231877 0.810688
vt 0.987533 0.395978
vt 0.945682 0.395978
vt 0.717953 0.941353
vt 0.717953 0.920725
vt 0.726736 0.941353
vt 0.905559 0.847333
vt 0.936462 0.845056
vt 0.936462 0.894110
vt 0.905608 0.892009
vt 0.987533 0.490705
vt 0.945682 0.490705
vt 0.890865 0.250523
vt 0.932716 0.250523
vt 0.924034 0.059243
vt 0.897320 0.091490
vt 0.881196 0.078133
vt 0.907910 0.045886
vt 0.788620 0.950136
vt 0.726736 0.950136
vt 0.900086 0.120971
vt 0.886729 0.137094
vt 0.932716 0.490705
vt 0.932716 0.588797
vt 0.890865 0.588797
vt 0.890865 0.490705
vt 0.339107 0.736110
vt 0.424237 0.736110
vt 0.424237 0.821240
vt 0.339107 0.821240
vt 0.932716 0.395978
vt 0.890865 0.395979
vt 0.932716 0.686890
vt 0.890865 0.686890
vt 0.798355 0.757165
vt 0.840920 0.757165
vt 0.840920 0.799730
vt 0.798355 0.799730
vt 0.601263 0.939055
vt 0.726736 0.929508
vt 0.706109 0.929508
vt 0.339107 0.693545
vt 0.424237 0.693545
vt 0.085412 0.895818
vt 0.042847 0.895818
vt 0.042847 0.853253
vt 0.466802 0.736110
vt 0.466802 0.821240
vt 0.865073 0.064776
vt 0.798287 0.145393
vt 0.749917 0.105322
vt 0.816703 0.024705
vt 0.814411 0.158750
vt 0.827768 0.142627
vt 0.843891 0.155984
vt 0.830534 0.172107
vt 0.803820 0.204354
vt 0.883963 0.107614
vt 0.867839 0.094256
vt 0.929566 0.118204
vt 0.643828 0.853925
vt 0.643828 0.939055
vt 0.787697 0.190997
vt 0.758216 0.193763
vt 0.948959 0.132321
vt 0.296542 0.778675
vt 0.296542 0.736110
vt 0.749917 0.644331
vt 0.771764 0.644331
vt 0.771764 0.666178
vt 0.749917 0.666178
vt 0.042847 0.895818
vt 0.042847 0.853253
vt 0.085412 0.853253
vt 0.042847 0.749353
vt 0.170542 0.749353
vt 0.000282 0.853252
vt 0.024077 0.768123
vt 0.932716 0.608416
vt 0.890865 0.608416
vt 0.601263 0.981620
vt 0.516133 0.981620
vt 0.424237 0.863805
vt 0.339107 0.863805
vt 0.907910 0.045886
vt 0.905144 0.016406
vt 0.946404 0.050587
vt 0.766041 0.249958
vt 0.749917 0.236601
vt 0.782164 0.132036
vt 0.924034 0.059243
vt 0.024077 0.980947
vt 0.000282 0.895818
vt 0.296542 0.821240
vt 0.255672 0.895818
vt 0.340512 0.408558
vt 0.340512 0.544650
vt 0.408558 0.544650
vt 0.408558 0.612696
vt 0.136374 0.748788
vt 0.068328 0.748788
vt 0.136374 0.408558
vt 0.136374 0.068328
vt 0.204420 0.000282
vt 0.340512 0.000282
vt 0.408558 0.068328
vt 0.408558 0.408558
vt 0.697325 0.920725
vt 0.231877 0.938383
vt 0.987533 0.774627
vt 0.987533 0.794245
vt 0.945682 0.794245
vt 0.945682 0.774626
vt 0.848949 0.051419
vt 0.945690 0.000282
vt 0.961813 0.013639
vt 0.749352 0.340512
vt 0.749352 0.680742
vt 0.681306 0.748788
vt 0.545215 0.748788
vt 0.477169 0.680742
vt 0.477169 0.340512
vt 0.409123 0.272466
vt 0.409123 0.000282
vt 0.477169 0.000282
vt 0.749352 0.136375
vt 0.749352 0.204420
vt 0.681307 0.204420
vt 0.681307 0.340512
vt 0.880999 0.622485
vt 0.859152 0.622485
vt 0.859152 0.666178
vt 0.880999 0.666178
vt 0.880998 0.688025
vt 0.793611 0.731719
vt 0.771764 0.731719
vt 0.793611 0.622485
vt 0.793611 0.513250
vt 0.815458 0.491403
vt 0.859152 0.491403
vt 0.880998 0.513250
vt 0.771764 0.250523
vt 0.793611 0.250523
vt 0.880999 0.294216
vt 0.880999 0.316063
vt 0.859152 0.316063
vt 0.859152 0.359757
vt 0.880999 0.359757
vt 0.880999 0.468992
vt 0.859152 0.490838
vt 0.815458 0.490838
vt 0.793611 0.468992
vt 0.793611 0.359757
vn -0.0000 -0.0000 -1.0000
vn -0.0000 0.0000 1.0000
vn 0.1334 0.9545 0.2668
vn 1.0000 0.0000 -0.0000
vn 0.2734 -0.9521 -0.1367
vn -1.0000 0.0000 -0.0000
vn 0.0000 1.0000 -0.0000
vn -0.7071 -0.0000 -0.7071
vn 0.0000 -1.0000 0.0000
vn 0.2668 0.9545 -0.1334
vn 0.7071 -0.0000 -0.7071
vn -0.2734 -0.9521 -0.1367
vn -0.2668 0.9545 -0.1334
vn -0.1334 0.9545 0.2668
vn -0.4472 0.0000 0.8944
vn 0.4472 0.0000 0.8944
usemtl Material.002
s off
f 21/1/1 7/2/1 8/3/1 22/4/1
f 2/5/1 3/6/1 17/7/1 16/8/1
f 82/9/1 43/10/1 29/11/1 80/12/1
f 51/13/2 50/14/2 36/15/2 37/16/2
f 92/17/1 93/18/1 91/19/1 90/20/1
f 54/21/1 53/22/1 39/23/1 40/24/1
f 101/25/3 31/26/3 104/27/3 103/28/3
f 70/29/4 28/30/4 25/31/4 69/32/4
f 91/19/5 85/33/5 82/34/5 90/35/5
f 50/14/6 49/36/6 35/37/6 36/15/6
f 63/38/1 62/39/1 79/40/1 77/41/1
f 79/42/6 62/39/6 61/43/6 80/44/6
f 98/45/7 100/46/7 101/25/7 99/47/7
f 125/48/4 113/49/4 114/50/4 124/51/4
f 59/52/4 84/53/4 95/54/4 96/55/4
f 24/56/2 10/57/2 11/58/2 25/59/2
f 14/60/1 58/61/1 57/62/1 78/63/1
f 86/64/6 89/65/6 97/66/6 94/67/6
f 92/17/6 90/20/6 82/68/6 80/69/6
f 13/70/8 12/71/8 26/72/8 27/73/8
f 105/74/2 106/75/2 128/76/2 129/77/2
f 96/55/1 95/54/1 94/67/1 97/66/1
f 105/78/6 129/79/6 140/80/6 138/81/6
f 106/82/7 133/83/7 134/84/7 135/85/7
f 89/86/1 86/87/1 85/88/1 87/89/1
f 128/90/4 106/82/4 135/85/4 136/91/4
f 98/92/6 99/93/6 68/94/6 67/95/6
f 136/96/2 135/85/2 134/84/2 137/97/2
f 69/32/9 76/98/9 74/99/9 71/100/9
f 78/63/7 57/62/7 67/95/7 56/101/7
f 72/102/9 71/100/9 74/99/9 73/103/9
f 114/50/2 111/104/2 105/105/2 124/106/2
f 81/107/9 42/108/9 43/109/9 82/110/9
f 31/111/6 45/112/6 119/113/6 104/114/6
f 93/18/10 92/115/10 80/116/10 87/117/10
f 133/83/6 131/118/6 137/119/6 134/84/6
f 60/120/4 57/62/4 58/121/4 59/122/4
f 63/38/6 77/123/6 31/124/6 64/125/6
f 34/126/6 48/127/6 47/128/6 33/129/6
f 71/100/4 72/102/4 84/130/4 83/131/4
f 30/132/11 29/11/11 43/10/11 44/133/11
f 130/134/4 132/135/4 139/136/4 141/137/4
f 29/138/7 77/139/7 79/140/7 80/141/7
f 105/74/7 102/142/7 103/28/7 106/75/7
f 70/29/1 71/100/1 83/143/1 28/144/1
f 84/145/1 72/102/1 73/103/1
f 73/103/1 85/88/1 86/87/1
f 89/146/1 60/120/1 59/147/1
f 44/133/4 55/148/4 41/149/4 30/132/4
f 42/150/1 81/151/1 74/99/1 75/152/1
f 95/153/12 84/154/12 86/64/12 94/67/12
f 59/155/13 96/156/13 97/66/13 89/65/13
f 52/157/6 51/13/6 37/16/6 38/158/6
f 87/117/4 85/33/4 91/19/4 93/18/4
f 13/70/1 27/73/1 84/159/1 59/160/1
f 123/161/2 124/162/2 121/163/2 122/164/2
f 45/165/6 42/166/6 75/152/6 76/98/6
f 141/167/2 139/136/2 138/81/2 140/168/2
f 4/169/4 5/170/4 19/171/4 18/172/4
f 107/173/7 108/174/7 109/175/7 110/176/7
f 12/71/6 1/177/6 15/178/6 26/72/6
f 22/4/4 8/3/4 9/179/4 23/180/4
f 13/181/7 59/182/7 58/183/7 14/184/7
f 113/49/7 112/185/7 111/104/7 114/50/7
f 62/39/7 57/62/7 60/120/7 61/43/7
f 81/186/6 82/187/6 73/103/6 74/99/6
f 106/188/4 103/189/4 108/174/4 107/173/4
f 66/190/2 100/191/2 98/192/2 67/95/2
f 35/37/1 49/36/1 48/127/1 34/126/1
f 108/174/1 103/193/1 104/194/1 109/175/1
f 127/195/9 126/196/9 76/197/9 69/198/9
f 118/199/2 131/200/2 133/201/2 115/202/2
f 115/202/7 104/27/7 116/203/7
f 132/204/2 130/205/2 121/163/2 124/162/2
f 123/161/7 125/206/7 124/162/7
f 131/200/9 128/76/9 136/96/9 137/97/9
f 125/207/1 102/208/1 112/185/1 113/49/1
f 117/209/2 118/199/2 115/202/2 116/203/2
f 129/77/9 130/205/9 141/167/9 140/168/9
f 119/113/6 76/210/6 126/196/6
f 129/77/2 127/195/2 130/205/2
f 99/47/14 102/142/14 125/206/14 11/211/14
f 133/212/2 106/213/2 107/173/2
f 84/214/9 27/215/9 28/216/9 83/217/9
f 65/218/4 101/219/4 100/220/4 66/190/4
f 11/221/4 14/222/4 78/63/4 56/101/4
f 56/101/2 68/94/2 99/223/2 11/224/2
f 6/225/4 7/2/4 21/1/4 20/226/4
f 103/28/7 102/142/7 99/47/7 101/25/7
f 132/135/7 105/78/7 138/81/7 139/136/7
f 112/185/6 102/227/6 105/228/6 111/104/6
f 109/175/6 104/229/6 115/230/6 110/176/6
f 120/231/4 121/163/4 127/195/4
f 120/231/4 69/232/4 11/233/4
f 56/101/7 67/95/7 68/94/7
f 64/125/7 65/218/7 66/190/7
f 60/120/1 89/146/1 61/43/1
f 117/209/8 116/203/8 104/234/8 119/235/8
f 117/209/9 119/236/9 118/199/9
f 76/210/6 119/113/6 45/112/6
f 119/113/6 126/196/6 118/199/6
f 127/195/2 128/76/2 126/196/2
f 126/196/2 131/200/2 118/199/2
f 131/200/2 126/196/2 128/76/2
f 128/76/2 127/195/2 129/77/2
f 130/205/2 127/195/2 121/163/2
f 133/212/2 107/173/2 110/176/2
f 120/231/4 127/195/4 69/232/4
f 120/231/4 11/233/4 125/237/4
f 64/125/2 31/238/2 101/239/2 65/218/2
f 110/176/2 115/240/2 133/212/2
f 61/43/1 89/146/1 87/241/1
f 36/242/7 35/243/7 34/244/7 33/245/7 32/246/7 31/247/7 77/139/7 29/138/7 30/248/7 41/249/7 40/250/7 39/251/7 38/252/7 37/253/7
f 66/190/7 62/39/7 63/38/7 64/125/7
f 5/170/2 6/225/2 20/226/2 19/171/2
f 73/103/1 86/87/1 84/145/1
f 85/88/1 73/103/1 82/254/1
f 61/43/1 87/241/1 80/255/1
f 46/256/2 45/257/2 31/258/2 32/259/2
f 66/190/7 67/95/7 57/62/7 62/39/7
f 69/32/9 71/100/9 70/29/9
f 74/99/9 76/98/9 75/152/9
f 40/24/11 41/149/11 55/148/11 54/21/11
f 33/129/15 47/128/15 46/256/15 32/259/15
f 121/163/9 120/260/9 122/164/9
f 123/161/11 122/164/11 120/261/11 125/262/11
f 39/23/8 53/22/8 52/157/8 38/158/8
f 24/56/16 23/180/16 9/179/16 10/57/16
f 16/8/8 15/178/8 1/177/8 2/5/8
f 18/172/11 17/7/11 3/6/11 4/169/11
f 5/263/7 4/264/7 3/265/7 2/266/7 1/267/7 12/268/7 13/269/7 11/270/7 10/271/7 9/272/7 8/273/7 7/274/7 6/275/7
f 19/276/9 20/277/9 21/278/9 22/279/9 23/280/9 24/281/9 25/282/9 28/216/9 27/215/9 26/283/9 15/284/9 16/285/9 17/286/9 18/287/9
f 45/288/9 46/289/9 47/290/9 48/291/9 49/292/9 50/293/9 51/294/9 52/295/9 53/296/9 54/297/9 55/298/9 44/299/9 43/109/9 42/108/9
