<?xml version="1.0" encoding="UTF-8" standalone="no"?>
<!-- Created with Inkscape (http://www.inkscape.org/) -->

<svg
   xmlns:dc="http://purl.org/dc/elements/1.1/"
   xmlns:cc="http://creativecommons.org/ns#"
   xmlns:rdf="http://www.w3.org/1999/02/22-rdf-syntax-ns#"
   xmlns:svg="http://www.w3.org/2000/svg"
   xmlns="http://www.w3.org/2000/svg"
   xmlns:sodipodi="http://sodipodi.sourceforge.net/DTD/sodipodi-0.dtd"
   xmlns:inkscape="http://www.inkscape.org/namespaces/inkscape"
   version="1.1"
   id="svg22"
   width="320"
   height="159.03999"
   viewBox="0 0 320 159.03999"
   sodipodi:docname="galaga.svg"
   inkscape:version="0.92.3 (2405546, 2018-03-11)">
  <metadata
     id="metadata28">
    <rdf:RDF>
      <cc:Work
         rdf:about="">
        <dc:format>image/svg+xml</dc:format>
        <dc:type
           rdf:resource="http://purl.org/dc/dcmitype/StillImage" />
        <dc:title></dc:title>
      </cc:Work>
    </rdf:RDF>
  </metadata>
  <defs
     id="defs26" />
  <sodipodi:namedview
     pagecolor="#ffffff"
     bordercolor="#666666"
     borderopacity="1"
     objecttolerance="10"
     gridtolerance="10"
     guidetolerance="10"
     inkscape:pageopacity="0"
     inkscape:pageshadow="2"
     inkscape:window-width="1366"
     inkscape:window-height="705"
     id="namedview24"
     showgrid="false"
     inkscape:zoom="2.5102291"
     inkscape:cx="168.28049"
     inkscape:cy="53.361135"
     inkscape:window-x="-8"
     inkscape:window-y="-8"
     inkscape:window-maximized="1"
     inkscape:current-layer="svg22" />
  <path
     style="fill:#000000;stroke-width:0.31999999"
     d="m 159.13083,145.68984 c -0.0156,-6.82019 -0.78658,-18.57425 -1.46416,-22.32228 -0.16664,-0.92177 0.0796,-1.21153 4.24718,-4.99749 5.17684,-4.70283 9.84174,-9.31889 13.03006,-12.89362 1.25071,-1.40229 2.6142,-2.91429 3.02997,-3.36 l 0.75596,-0.81038 -0.19646,0.85773 c -0.51146,2.23298 -5.61566,12.37526 -8.6352,17.15852 -1.03755,1.64358 -1.10121,2.62375 -0.1704,2.62375 0.5773,0 4.20081,-1.66654 6.41309,-2.94953 2.47944,-1.43794 9.95403,-6.61177 11.78937,-8.16047 2.77712,-2.3434 3.11185,-3.0527 2.58085,-5.46896 -0.53254,-2.42333 -2.38365,-5.908352 -3.79779,-7.149982 -0.62817,-0.55154 -2.22961,-1.52091 -3.55875,-2.15416 -2.23953,-1.06698 -2.67457,-1.15967 -5.93662,-1.26491 -3.92985,-0.12678 -6.23444,0.31874 -9.64267,1.86411 l -1.9997,0.9067 0.53066,-1.1714 c 0.29187,-0.64427 0.7874,-1.55363 1.10119,-2.02079 0.31378,-0.46717 0.57052,-0.94276 0.57052,-1.05686 0,-0.1141 0.93844,-1.66856 2.08541,-3.45437 1.14698,-1.7858 2.0357,-3.39821 1.97494,-3.58314 -0.22827,-0.69472 -1.62883,-0.51204 -4.32167,0.56369 -3.83085,1.53035 -9.84433,3.21222 -11.57868,3.23837 -1.4152,0.0213 -1.442,0.003 -1.55604,-1.09829 -0.3474,-3.35285 2.8721,-20.77435 4.56792,-24.71823 0.83745,-1.9476 3.7837,-3.36318 12.82812,-6.163498 8.9968,-2.785571 10.88001,-3.416736 14.98018,-5.020656 2.2551,-0.882156 4.18691,-1.517199 4.2929,-1.411203 0.106,0.105997 -0.92217,1.644173 -2.28481,3.41817 -1.36265,1.773996 -2.40561,3.412896 -2.3177,3.641996 0.12071,0.314563 0.4989,0.348583 1.54464,0.138944 0.76163,-0.152681 2.2014,-0.368134 3.19947,-0.478787 l 1.81468,-0.201181 0.32036,1.160247 c 0.70936,2.569058 -0.87235,11.683278 -2.67489,15.413478 -0.69495,1.43812 -1.07853,1.78474 -3.42866,3.09831 -1.45539,0.81347 -3.67854,2.0008 -4.94033,2.63851 -1.26179,0.63772 -2.67125,1.53658 -3.13213,1.99746 -1.10765,1.10765 -3.31414,5.65445 -3.56949,7.35546 -0.18367,1.22351 -0.12765,1.38314 0.60206,1.71561 0.6441,0.29347 1.45108,0.22594 4.04598,-0.3386 4.07235,-0.88596 10.147,-0.96006 13.94774,-0.17013 3.61248,0.75081 8.04724,2.91858 10.26858,5.01942 2.69489,2.54872 3.12216,3.58625 3.13999,7.624672 0.0133,3.01543 -0.0844,3.60646 -0.95285,5.76329 -2.03177,5.04601 -4.98232,8.35654 -14.86949,16.68359 -8.17755,6.88721 -22.06547,16.65625 -30.3645,21.35901 l -2.26173,1.28164 z m 11.87071,-67.418382 c 7.04917,-2.07735 8.11358,-2.9214 8.83008,-7.00207 0.81739,-4.65529 0.44458,-6.28543 -1.43655,-6.28154 -1.07991,0.002 -6.6586,2.15616 -9.36624,3.61629 -2.61219,1.40865 -3.17966,2.34687 -3.40462,5.62896 -0.20884,3.04679 -0.0102,3.97811 0.94676,4.43932 1.06116,0.51141 1.4558,0.47569 4.43057,-0.40096 z M 45.53793,98.333438 c 0,-0.13895 0.589789,-2.19095 1.31064,-4.56 2.124621,-6.98249 2.525245,-8.41815 2.38753,-8.55586 -0.07173,-0.0717 -2.194394,1.15878 -4.717024,2.73449 -5.156772,3.22105 -6.472548,3.92192 -10.86553,5.78763 -10.108376,4.29306 -19.699563,4.22758 -24.5883592,-0.16787 -3.22679,-2.90116 -4.327594,-5.75278 -4.3025658,-11.14575 0.02842,-6.12371 1.3986958,-11.11395 5.304754,-19.31873 7.589595,-15.942156 19.272165,-28.999822 32.457723,-36.27817 8.523085,-4.704688 17.870179,-7.532475 23.809053,-7.202977 3.8808,0.215312 11.203779,2.460493 11.203779,3.43501 0,0.501589 -0.86471,1.605445 -6.4,8.169979 -5.473434,6.491184 -8.092189,9.449363 -8.236963,9.304592 -0.07831,-0.07831 0.81415,-3.486471 1.983245,-7.573683 1.169097,-4.087216 2.043225,-7.646038 1.942512,-7.908497 -0.239501,-0.624133 -2.725879,-0.379251 -7.260717,0.715102 -10.027373,2.419821 -17.222362,6.652659 -23.914835,14.069177 -3.161492,3.503526 -5.006212,6.633599 -7.466042,12.668194 -1.386046,3.40032 -1.910168,5.084298 -2.838513,9.120003 -1.657593,7.20588 -0.423531,11.98137 3.727204,14.42329 4.145395,2.43877 10.328077,2.73693 16.417136,0.79171 2.192883,-0.70054 6.781037,-2.73794 8.366973,-3.7154 2.79561,-1.72303 7.356656,-5.25689 8.853475,-6.8596 3.293427,-3.52642 3.449719,-7.273622 0.491427,-11.782515 -0.953408,-1.453142 -1.051686,-1.766966 -0.67096,-2.14256 0.245332,-0.242025 4.527527,-2.163171 9.515984,-4.269212 7.222352,-3.049149 9.038077,-3.707363 8.913568,-3.231238 -0.086,0.32886 -1.611465,3.104326 -3.389926,6.167705 -1.778464,3.063376 -3.233568,5.711273 -3.233568,5.884214 0,0.358569 3.205782,8.266136 6.977869,17.212006 1.409648,3.34311 2.491062,6.19478 2.403142,6.33704 -0.08792,0.14226 -0.902614,0.59194 -1.810432,0.9993 -1.416403,0.63558 -16.929597,8.10391 -25.970579,12.5027 -4.885696,2.37709 -9.823382,4.64255 -10.118662,4.64255 -0.154736,0 -0.281338,-0.11368 -0.281338,-0.25263 z m 89.37281,-5.90736 c -0.90293,-1.18205 -1.11568,-2.54466 -0.92246,-5.90828 0.46179,-8.03884 0.53683,-9.59002 0.8326,-17.21172 0.17076,-4.4 0.38812,-9.728003 0.48302,-11.840003 1.45341,-32.342323 1.45761,-32.623986 0.50347,-33.804547 -0.55145,-0.682302 -0.93101,-0.771323 -3.92,-0.919374 l -3.30944,-0.163924 5.76,-2.883312 c 6.27111,-3.13916 12.1196,-5.58884 13.34309,-5.58884 0.42602,0 1.05411,0.20435 1.39575,0.454112 0.58766,0.429618 0.62116,0.908587 0.62116,8.879999 0,4.63424 -0.12234,19.729887 -0.27187,33.545886 -0.25904,23.934003 -0.30138,25.183063 -0.89675,26.455623 -1.28969,2.75663 -10.17767,9.38438 -12.58469,9.38438 -0.40058,0 -0.86582,-0.18 -1.03388,-0.4 z m -45.866471,-0.75858 c -1.500227,-0.44296 -2.408301,-1.16627 -3.069549,-2.44499 -0.508572,-0.98346 -0.432662,-2.09244 0.519984,-7.59643 0.319856,-1.848 0.891344,-5.448 1.269975,-8 0.37863,-2.552 0.921469,-5.83972 1.20631,-7.30603 0.601328,-3.09555 0.79512,-3.30207 5.206941,-5.5488 2.57991,-1.313832 2.72492,-1.443701 2.81552,-2.521528 0.0704,-0.837869 -0.0854,-1.30017 -0.59332,-1.76 -0.60177,-0.544813 -1.362152,-0.650083 -6.015522,-0.832816 -6.230412,-0.244662 -5.960147,-0.224029 -5.74552,-0.438653 0.437194,-0.437193 13.422822,-4.747491 21.378842,-7.096239 5.17963,-1.529114 9.96336,-0.522583 12.79266,2.69167 2.18904,2.48688 2.1872,2.449683 1.07841,21.876736 -0.23127,4.05193 0.0181,4.77566 1.64569,4.77566 0.60184,0 2.70896,-0.576 4.6825,-1.28 1.97354,-0.704 3.8088,-1.28 4.07836,-1.28 0.6588,0 -2.39372,2.91388 -9.72077,9.27927 -3.34227,2.9036 -6.36485,5.54543 -6.71685,5.87073 -0.69318,0.64061 -1.85535,1.17 -2.5685,1.17 -0.50427,0 -0.96346,-1.51378 -1.28746,-4.24423 -0.12036,-1.01433 -0.35528,-1.92856 -0.52205,-2.03162 -0.16676,-0.10307 -1.04993,0.30592 -1.9626,0.90885 -4.02087,2.65633 -8.19304,4.58801 -11.66855,5.40243 -2.80437,0.65714 -5.424443,0.81347 -6.804501,0.40599 z m 14.906971,-13.37182 c 2.31173,-0.83911 3.44017,-1.70588 3.9333,-3.02121 0.275,-0.73351 0.74078,-3.84391 1.52023,-10.15181 0.15833,-1.28135 0.0875,-1.73649 -0.33598,-2.16 -0.79625,-0.79625 -1.47956,-0.67281 -4.40076,0.79504 -4.96558,2.4951 -5.69282,3.38057 -6.46246,7.86852 -0.7058,4.11568 -0.66916,5.99834 0.13236,6.79986 0.88169,0.88168 2.95792,0.83345 5.61331,-0.1304 z m 100.46669,13.02886 c -1.51141,-0.38166 -2.75627,-1.20161 -3.39614,-2.23695 -0.821,-1.32839 -0.82387,-1.29199 1.0055,-12.74151 1.88257,-11.78246 2.17518,-13.11634 3.05954,-13.94715 0.41603,-0.39084 2.09173,-1.37263 3.72376,-2.18174 2.84564,-1.41078 2.97126,-1.517718 3.06286,-2.607468 0.16086,-1.913603 -0.49853,-2.225536 -5.09596,-2.410694 -5.15954,-0.207796 -7.45831,-0.450282 -7.11598,-0.750631 1.2017,-1.054345 21.39262,-7.313443 24.85808,-7.705897 3.50777,-0.397245 6.7726,0.759946 8.9529,3.173277 2.41855,2.677052 2.43191,2.809222 1.69522,16.776823 -0.2398,4.54658 -0.35723,8.57858 -0.26095,8.95999 0.3745,1.48375 1.48681,1.51991 5.19117,0.16874 4.08048,-1.48836 5.55985,-1.85545 5.8217,-1.44459 0.25631,0.40219 -0.28674,1.16934 -0.82776,1.16934 -0.20223,0 -1.8766,1.31083 -3.72082,2.91298 -4.02057,3.49281 -9.32595,8.15874 -10.87312,9.5626 -2.05008,1.86019 -3.86712,2.89242 -4.49759,2.555 -0.59978,-0.32099 -0.77967,-0.95026 -1.09585,-3.83334 -0.30402,-2.77231 -0.48461,-2.88414 -2.46675,-1.52755 -2.28286,1.56241 -6.10375,3.58439 -8.25981,4.37101 -3.67532,1.34091 -8.16554,2.14039 -9.76,1.73776 z m 14.41331,-13.66886 c 2.31173,-0.83911 3.44017,-1.70588 3.9333,-3.02121 0.275,-0.73351 0.74078,-3.84391 1.52023,-10.15181 0.15833,-1.28135 0.0875,-1.73649 -0.33598,-2.16 -0.79625,-0.79625 -1.47956,-0.67281 -4.40076,0.79504 -4.96558,2.4951 -5.69282,3.38057 -6.46246,7.86852 -0.7058,4.11568 -0.66916,5.99834 0.13236,6.79986 0.88169,0.88168 2.95792,0.83345 5.61331,-0.1304 z m 30.9595,13.4904 c -0.90293,-1.18205 -1.11568,-2.54466 -0.92246,-5.90828 0.46179,-8.03884 0.53683,-9.59002 0.8326,-17.21172 0.17076,-4.4 0.38812,-9.728003 0.48302,-11.840003 1.45341,-32.342323 1.45761,-32.623986 0.50347,-33.804547 -0.55145,-0.682302 -0.93101,-0.771323 -3.92,-0.919374 l -3.30944,-0.163924 5.76,-2.883312 c 6.27111,-3.13916 12.1196,-5.58884 13.34309,-5.58884 0.42602,0 1.05411,0.20435 1.39575,0.454112 0.58766,0.429618 0.62116,0.908587 0.62116,8.88 0,4.634239 -0.12234,19.729886 -0.27187,33.545885 -0.25904,23.934003 -0.30138,25.183063 -0.89675,26.455623 -1.28969,2.75663 -10.17767,9.38438 -12.58469,9.38438 -0.40058,0 -0.86582,-0.18 -1.03388,-0.4 z m 24.22792,-0.11433 c -1.51394,-0.44701 -2.42112,-1.16749 -3.08394,-2.44924 -0.50857,-0.98346 -0.43266,-2.09244 0.51998,-7.59643 0.31986,-1.848 0.89135,-5.448 1.26998,-8 0.37863,-2.552 0.92147,-5.83972 1.20631,-7.30603 0.60133,-3.09555 0.79512,-3.30207 5.20694,-5.548802 2.57991,-1.31383 2.72492,-1.443699 2.81552,-2.521526 0.0704,-0.837869 -0.0854,-1.30017 -0.59332,-1.76 -0.60177,-0.544813 -1.36215,-0.650083 -6.01552,-0.832816 -6.23041,-0.244662 -5.96015,-0.224029 -5.74552,-0.438653 0.43719,-0.437193 13.42282,-4.747491 21.37884,-7.096239 5.17963,-1.529114 9.96336,-0.522583 12.79266,2.69167 2.18904,2.48688 2.1872,2.449683 1.07841,21.876736 -0.23127,4.05193 0.0181,4.77566 1.64569,4.77566 0.60184,0 2.7197,-0.57983 4.70637,-1.28852 1.98667,-0.70868 3.81882,-1.24868 4.07145,-1.2 0.50545,0.0974 -1.33294,1.92288 -5.69141,5.65144 -1.47225,1.25948 -3.70425,3.20625 -4.96,4.32616 -6.6701,5.94859 -7.10041,6.27092 -8.37167,6.27092 -0.50427,0 -0.96346,-1.51378 -1.28746,-4.24423 -0.12036,-1.01433 -0.35528,-1.92856 -0.52205,-2.03162 -0.16676,-0.10307 -1.04993,0.30592 -1.9626,0.90885 -4.04676,2.67344 -8.26975,4.62355 -11.66855,5.38837 -3.01906,0.67936 -5.41847,0.8293 -6.79011,0.4243 z m 14.89258,-13.37607 c 2.31173,-0.83911 3.44017,-1.70588 3.9333,-3.02121 0.275,-0.73351 0.74078,-3.84391 1.52023,-10.15181 0.15833,-1.28135 0.0875,-1.73649 -0.33598,-2.16 -0.79625,-0.79625 -1.47956,-0.67281 -4.40076,0.79504 -4.96558,2.4951 -5.69282,3.38057 -6.46246,7.86852 -0.7058,4.11568 -0.66916,5.99834 0.13236,6.79986 0.88169,0.88168 2.95792,0.83345 5.61331,-0.1304 z"
     id="path32"
     inkscape:connector-curvature="0" />
</svg>
